<?xml version="1.0" encoding="utf-8"?>
<!-- Generator: Adobe Illustrator 16.0.0, SVG Export Plug-In . SVG Version: 6.00 Build 0)  -->
<!DOCTYPE svg PUBLIC "-//W3C//DTD SVG 1.1//EN" "http://www.w3.org/Graphics/SVG/1.1/DTD/svg11.dtd">
<svg version="1.1" id="Layer_1" xmlns="http://www.w3.org/2000/svg" xmlns:xlink="http://www.w3.org/1999/xlink" x="0px" y="0px"
	 width="19.238px" height="26px" viewBox="0 0 19.238 26" enable-background="new 0 0 19.238 26" xml:space="preserve">
<path fill="#231F20" d="M17.351,5.749H15.49C15.021,2.711,12.624,0,9.74,0C6.854,0,4.458,2.711,3.99,5.749H2.128
	C0.746,5.749,0,6.464,0,7.847v16.469C0,25.7,0.746,26,2.128,26h15.224c1.383,0,1.887-0.3,1.887-1.684V7.847
	C19.238,6.464,18.734,5.749,17.351,5.749z M9.741,2.119c1.739,0,3.199,1.605,3.604,3.63H6.136C6.539,3.724,8,2.119,9.741,2.119z
	 M17.214,24.316c0,0.211,0.349-0.343,0.139-0.343H2.128c-0.209,0-0.104,0.554-0.104,0.343V7.847c0-0.209-0.106-0.073,0.104-0.073
	h1.923v1.303c0,0.586,0.427,1.061,1.012,1.061c0.586,0,1.013-0.474,1.013-1.061V7.774h7.088v1.303c0,0.586,0.426,1.061,1.014,1.061
	c0.583,0,1.013-0.474,1.013-1.061V7.774h2.163c0.21,0-0.139-0.136-0.139,0.073V24.316z"/>
</svg>
