<?xml version="1.0" encoding="utf-8"?>
<!-- Generator: Adobe Illustrator 16.0.0, SVG Export Plug-In . SVG Version: 6.00 Build 0)  -->
<!DOCTYPE svg PUBLIC "-//W3C//DTD SVG 1.1//EN" "http://www.w3.org/Graphics/SVG/1.1/DTD/svg11.dtd">
<svg version="1.1" id="Layer_1" xmlns="http://www.w3.org/2000/svg" xmlns:xlink="http://www.w3.org/1999/xlink" x="0px" y="0px"
	 width="22.514px" height="25px" viewBox="0 0 22.514 25" enable-background="new 0 0 22.514 25" xml:space="preserve">
<g>
	<path fill="#231F20" d="M11.258,13.234c3.647,0,6.616-2.969,6.616-6.618C17.874,2.969,14.906,0,11.258,0
		C7.61,0,4.641,2.969,4.641,6.617C4.641,10.266,7.61,13.234,11.258,13.234z M11.258,2.098c2.49,0,4.519,2.027,4.519,4.519
		c0,2.493-2.025,4.519-4.519,4.519s-4.52-2.027-4.52-4.519C6.739,4.125,8.766,2.098,11.258,2.098z"/>
	<path fill="#231F20" d="M22.49,22.824c-0.734-4.648-5.563-8.152-11.231-8.152c-5.684,0-10.515,3.516-11.236,8.178
		c-0.083,0.533,0.072,1.006,0.438,1.432C0.882,24.773,1.525,25,2.221,25h18.055c0.706,0,1.355-0.23,1.783-0.73
		C22.424,23.84,22.576,23.363,22.49,22.824z M20.273,22.955H2.219c-0.038,0-0.068,0.023-0.095,0.02
		c0.659-3.566,4.548-6.219,9.134-6.219c4.579,0,8.47,2.643,9.133,6.203C20.362,22.967,20.322,22.955,20.273,22.955z"/>
</g>
</svg>
